<?xml version="1.0" encoding="UTF-8" standalone="no"?>
<!-- Generator: Adobe Illustrator 17.0.0, SVG Export Plug-In . SVG Version: 6.00 Build 0)  -->

<svg
   xmlns:dc="http://purl.org/dc/elements/1.1/"
   xmlns:cc="http://creativecommons.org/ns#"
   xmlns:rdf="http://www.w3.org/1999/02/22-rdf-syntax-ns#"
   xmlns:svg="http://www.w3.org/2000/svg"
   xmlns="http://www.w3.org/2000/svg"
   xmlns:sodipodi="http://sodipodi.sourceforge.net/DTD/sodipodi-0.dtd"
   xmlns:inkscape="http://www.inkscape.org/namespaces/inkscape"
   version="1.1"
   id="Layer_1"
   x="0px"
   y="0px"
   width="100px"
   height="100px"
   viewBox="0 0 100 100"
   enable-background="new 0 0 100 100"
   xml:space="preserve"
   sodipodi:docname="demo.svg"
   inkscape:version="0.92.2 (5c3e80d, 2017-08-06)"><metadata
     id="metadata13"><rdf:RDF><cc:Work
         rdf:about=""><dc:format>image/svg+xml</dc:format><dc:type
           rdf:resource="http://purl.org/dc/dcmitype/StillImage" /><dc:title /></cc:Work></rdf:RDF></metadata><defs
     id="defs11" /><sodipodi:namedview
     pagecolor="#ffffff"
     bordercolor="#666666"
     borderopacity="1"
     objecttolerance="10"
     gridtolerance="10"
     guidetolerance="10"
     inkscape:pageopacity="0"
     inkscape:pageshadow="2"
     inkscape:window-width="1920"
     inkscape:window-height="1017"
     id="namedview9"
     showgrid="false"
     inkscape:zoom="2.36"
     inkscape:cx="-94.491526"
     inkscape:cy="50"
     inkscape:window-x="-8"
     inkscape:window-y="-8"
     inkscape:window-maximized="1"
     inkscape:current-layer="Layer_1" /><g
     id="g6"
     style="fill-opacity:1;fill:#0000fb"
     inkscape:export-xdpi="40.959999"
     inkscape:export-ydpi="40.959999"
     transform="matrix(1.3333333,0,0,1.3333333,-16.666667,-16.666667)"><path
       d="M 50,12.5 C 29.288,12.5 12.5,29.293 12.5,50.002 12.5,70.712 29.288,87.5 50,87.5 70.712,87.5 87.5,70.712 87.5,50.002 87.5,29.293 70.712,12.5 50,12.5 Z m 0,65.061 C 34.801,77.561 22.44,65.199 22.44,50.002 22.44,34.807 34.802,22.44 50,22.44 c 15.198,0 27.56,12.367 27.56,27.562 0,15.196 -12.362,27.559 -27.56,27.559 z"
       id="path2"
       style="fill-opacity:1;fill:#0000fb"
       inkscape:connector-curvature="0" /><path
       d="m 66.352,49.097 0.006,-0.01 -23.367,-13.491 -0.006,0.01 c -0.156,-0.091 -0.328,-0.157 -0.521,-0.157 -0.585,0 -1.059,0.475 -1.059,1.06 0,0.043 0.019,0.079 0.024,0.12 H 41.405 V 63.61 h 0.024 c 0.062,0.526 0.493,0.94 1.035,0.94 0.194,0 0.365,-0.066 0.521,-0.157 L 43.001,64.42 66.368,50.93 66.352,50.903 C 66.668,50.72 66.89,50.392 66.89,50 c 0,-0.392 -0.222,-0.719 -0.538,-0.903 z"
       id="path4"
       style="fill-opacity:1;fill:#0000fb"
       inkscape:connector-curvature="0" /></g></svg>