<?xml version="1.0" encoding="UTF-8" standalone="no"?>
<!-- Generator: Adobe Illustrator 17.0.0, SVG Export Plug-In . SVG Version: 6.00 Build 0)  -->

<svg
   xmlns:dc="http://purl.org/dc/elements/1.1/"
   xmlns:cc="http://creativecommons.org/ns#"
   xmlns:rdf="http://www.w3.org/1999/02/22-rdf-syntax-ns#"
   xmlns:svg="http://www.w3.org/2000/svg"
   xmlns="http://www.w3.org/2000/svg"
   xmlns:sodipodi="http://sodipodi.sourceforge.net/DTD/sodipodi-0.dtd"
   xmlns:inkscape="http://www.inkscape.org/namespaces/inkscape"
   version="1.1"
   id="Layer_1"
   x="0px"
   y="0px"
   width="100px"
   height="100px"
   viewBox="0 0 100 100"
   enable-background="new 0 0 100 100"
   xml:space="preserve"
   sodipodi:docname="github.svg"
   inkscape:version="0.92.2 (5c3e80d, 2017-08-06)"><metadata
     id="metadata11"><rdf:RDF><cc:Work
         rdf:about=""><dc:format>image/svg+xml</dc:format><dc:type
           rdf:resource="http://purl.org/dc/dcmitype/StillImage" /></cc:Work></rdf:RDF></metadata><defs
     id="defs9" /><sodipodi:namedview
     pagecolor="#ffffff"
     bordercolor="#666666"
     borderopacity="1"
     objecttolerance="10"
     gridtolerance="10"
     guidetolerance="10"
     inkscape:pageopacity="0"
     inkscape:pageshadow="2"
     inkscape:window-width="1920"
     inkscape:window-height="1017"
     id="namedview7"
     showgrid="false"
     inkscape:zoom="2.36"
     inkscape:cx="-94.491526"
     inkscape:cy="50"
     inkscape:window-x="-8"
     inkscape:window-y="-8"
     inkscape:window-maximized="1"
     inkscape:current-layer="Layer_1" /><g
     id="g4"
     style="fill-opacity:1;fill:#901010"
     transform="matrix(1.2820513,0,0,1.3145164,-14.102564,-15.72556)"><path
       d="M 49.998,11.963 C 28.461,11.963 11,29.425 11,50.965 c 0,17.231 11.172,31.849 26.671,37.003 1.952,0.361 2.662,-0.84 2.662,-1.877 0,-0.924 -0.034,-3.375 -0.051,-6.633 -10.849,2.359 -13.138,-5.229 -13.138,-5.229 -1.774,-4.505 -4.331,-5.703 -4.331,-5.703 -3.541,-2.418 0.269,-2.371 0.269,-2.371 3.914,0.277 5.974,4.018 5.974,4.018 3.478,5.96 9.129,4.235 11.35,3.243 0.353,-2.525 1.363,-4.24 2.476,-5.217 -8.659,-0.984 -17.763,-4.33 -17.763,-19.274 0,-4.259 1.519,-7.741 4.013,-10.468 -0.399,-0.982 -1.74,-4.947 0.383,-10.319 0,0 3.274,-1.048 10.726,4.001 3.109,-0.869 6.446,-1.303 9.763,-1.316 3.312,0.014 6.65,0.447 9.763,1.316 7.447,-5.049 10.716,-4.001 10.716,-4.001 2.128,5.372 0.788,9.337 0.388,10.319 2.5,2.727 4.008,6.209 4.008,10.468 0,14.979 -9.117,18.279 -17.805,19.241 1.398,1.205 2.646,3.59 2.646,7.229 0,5.211 -0.047,9.416 -0.047,10.695 0,1.045 0.701,2.26 2.681,1.873 C 77.836,82.798 89,68.191 89,50.965 89,29.425 71.539,11.963 49.998,11.963 Z"
       id="path2"
       style="clip-rule:evenodd;fill-opacity:1;fill-rule:evenodd;fill:#901010"
       inkscape:connector-curvature="0" /></g></svg>