<?xml version="1.0" encoding="UTF-8" standalone="no"?>
<svg
   xmlns:dc="http://purl.org/dc/elements/1.1/"
   xmlns:cc="http://creativecommons.org/ns#"
   xmlns:rdf="http://www.w3.org/1999/02/22-rdf-syntax-ns#"
   xmlns:svg="http://www.w3.org/2000/svg"
   xmlns="http://www.w3.org/2000/svg"
   xmlns:sodipodi="http://sodipodi.sourceforge.net/DTD/sodipodi-0.dtd"
   xmlns:inkscape="http://www.inkscape.org/namespaces/inkscape"
   viewBox="0 0 100 100"
   version="1.1"
   id="svg8"
   sodipodi:docname="home.svg"
   width="100"
   height="100"
   inkscape:version="0.92.2 (5c3e80d, 2017-08-06)">
  <metadata
     id="metadata14">
    <rdf:RDF>
      <cc:Work
         rdf:about="">
        <dc:format>image/svg+xml</dc:format>
        <dc:type
           rdf:resource="http://purl.org/dc/dcmitype/StillImage" />
        <dc:title></dc:title>
      </cc:Work>
    </rdf:RDF>
  </metadata>
  <defs
     id="defs12" />
  <sodipodi:namedview
     pagecolor="#ffffff"
     bordercolor="#666666"
     borderopacity="1"
     objecttolerance="10"
     gridtolerance="10"
     guidetolerance="10"
     inkscape:pageopacity="0"
     inkscape:pageshadow="2"
     inkscape:window-width="1920"
     inkscape:window-height="1017"
     id="namedview10"
     showgrid="false"
     inkscape:zoom="8.48"
     inkscape:cx="50"
     inkscape:cy="50"
     inkscape:window-x="-8"
     inkscape:window-y="-8"
     inkscape:window-maximized="1"
     inkscape:current-layer="svg8" />
  <g
     id="g6"
     transform="matrix(3.125,0,0,2.9166667,0,3.3333336)"
     style="fill:#0000f5;fill-opacity:1">
    <path
       d="M 9.7059036,4.000024 C 9.549251,4.001374 9.3926335,4.059439 9.2635077,4.17409 L 0.26867772,12.153846 C 0.09936928,12.304179 0,12.533178 0,12.774535 v 14.43071 C 0,27.64451 0.3202861,27.999999 0.71610107,28 H 6.0633969 c 0.3952427,0 0.71666,-0.355807 0.71666,-0.794755 v -8.835836 h 6.1600301 v 8.835836 c 0,0.439265 0.321416,0.794754 0.71666,0.794755 h 5.347854 c 0.395244,0 0.716659,-0.355807 0.716659,-0.794755 v -14.43071 c 2.86e-4,-0.245797 -0.102573,-0.477789 -0.278173,-0.628122 L 10.150534,4.1660365 C 10.019692,4.0539213 9.862557,3.9986763 9.7059036,4.000024 Z"
       id="path2"
       inkscape:connector-curvature="0"
       style="fill:#0000f5;fill-opacity:1" />
    <path
       d="m 24.488479,10.00002 c -0.117489,0.0011 -0.234952,0.04456 -0.331797,0.13055 l -6.746122,5.984817 c -0.126981,0.11275 -0.201508,0.284499 -0.201508,0.465516 V 27.403936 C 17.209052,27.733381 17.449266,28 17.746127,28 h 4.010472 c 0.296432,0 0.537495,-0.266852 0.537495,-0.596064 v -6.626877 h 4.620023 v 6.626877 c 0,0.329445 0.24106,0.596064 0.537497,0.596064 h 4.010889 C 31.758936,28 32,27.733148 32,27.403936 V 16.580904 c 2.14e-4,-0.184349 -0.07693,-0.358342 -0.20863,-0.471092 L 24.821952,10.12453 c -0.09813,-0.08409 -0.215983,-0.12552 -0.333473,-0.12451 z"
       id="path4"
       inkscape:connector-curvature="0"
       style="fill:#0000f5;fill-opacity:1" />
  </g>
</svg>
