<?xml version="1.0" encoding="UTF-8" standalone="no"?>
<!-- Generator: Adobe Illustrator 17.0.0, SVG Export Plug-In . SVG Version: 6.00 Build 0)  -->

<svg
   xmlns:dc="http://purl.org/dc/elements/1.1/"
   xmlns:cc="http://creativecommons.org/ns#"
   xmlns:rdf="http://www.w3.org/1999/02/22-rdf-syntax-ns#"
   xmlns:svg="http://www.w3.org/2000/svg"
   xmlns="http://www.w3.org/2000/svg"
   xmlns:sodipodi="http://sodipodi.sourceforge.net/DTD/sodipodi-0.dtd"
   xmlns:inkscape="http://www.inkscape.org/namespaces/inkscape"
   version="1.1"
   id="Layer_1"
   x="0px"
   y="0px"
   width="100px"
   height="100px"
   viewBox="0 0 100 100"
   enable-background="new 0 0 100 100"
   xml:space="preserve"
   sodipodi:docname="reverse.svg"
   inkscape:export-filename="C:\Data\angular\TrafficAssist\src\assets\reverse.png"
   inkscape:export-xdpi="45.419998"
   inkscape:export-ydpi="45.419998"
   inkscape:version="0.92.2 (5c3e80d, 2017-08-06)"><metadata
     id="metadata13"><rdf:RDF><cc:Work
         rdf:about=""><dc:format>image/svg+xml</dc:format><dc:type
           rdf:resource="http://purl.org/dc/dcmitype/StillImage" /></cc:Work></rdf:RDF></metadata><defs
     id="defs11" /><sodipodi:namedview
     pagecolor="#ffffff"
     bordercolor="#666666"
     borderopacity="1"
     objecttolerance="10"
     gridtolerance="10"
     guidetolerance="10"
     inkscape:pageopacity="0"
     inkscape:pageshadow="2"
     inkscape:window-width="1920"
     inkscape:window-height="1017"
     id="namedview9"
     showgrid="false"
     inkscape:zoom="2.36"
     inkscape:cx="-94.491526"
     inkscape:cy="50"
     inkscape:window-x="-8"
     inkscape:window-y="-8"
     inkscape:window-maximized="1"
     inkscape:current-layer="Layer_1" /><g
     id="g6"
     style="fill-opacity:1;fill:#0000ff"
     transform="matrix(1.4783927,0,0,1.4950588,-23.918897,-24.752194)"><path
       d="m 83.729,23.57 c -0.007,-0.562 -0.32,-1.084 -0.825,-1.337 -0.503,-0.259 -1.107,-0.212 -1.568,0.114 l -5.944,4.262 -0.468,0.336 C 68.519,20.554 59.728,16.556 49.986,16.556 c -13.284,0 -24.878,7.354 -30.941,18.201 l 0.024,0.013 c -0.548,1.183 -0.124,2.607 1.026,3.271 0.001,0 0.001,0 0.002,0.001 l 8.136,4.697 c 1.218,0.704 2.777,0.287 3.48,-0.932 0.006,-0.011 0.009,-0.023 0.015,-0.034 3.591,-6.404 10.438,-10.747 18.289,-10.747 4.879,0 9.352,1.696 12.914,4.5 l -1.001,0.719 -5.948,4.262 c -0.455,0.327 -0.696,0.89 -0.611,1.447 0.081,0.558 0.471,1.028 1.008,1.208 l 25.447,8.669 c 0.461,0.162 0.966,0.084 1.367,-0.203 0.399,-0.29 0.629,-0.746 0.627,-1.23 z"
       id="path2"
       style="fill-opacity:1;fill:#0000ff"
       inkscape:connector-curvature="0" /><path
       d="m 79.904,61.958 c 0,0 -10e-4,0 -0.002,-10e-4 L 71.766,57.26 c -1.218,-0.704 -2.777,-0.287 -3.48,0.932 -0.006,0.011 -0.009,0.023 -0.015,0.034 -3.591,6.404 -10.438,10.747 -18.289,10.747 -4.879,0 -9.352,-1.696 -12.914,-4.5 l 1.001,-0.719 5.948,-4.262 c 0.455,-0.327 0.696,-0.89 0.611,-1.447 -0.081,-0.558 -0.471,-1.028 -1.008,-1.208 L 18.173,48.168 c -0.461,-0.162 -0.966,-0.084 -1.367,0.203 -0.399,0.29 -0.629,0.746 -0.627,1.23 l 0.092,26.828 c 0.007,0.562 0.32,1.084 0.825,1.337 0.503,0.259 1.107,0.212 1.568,-0.114 l 5.944,-4.262 0.468,-0.336 c 6.405,6.391 15.196,10.389 24.938,10.389 13.284,0 24.878,-7.354 30.941,-18.201 L 80.93,65.23 c 0.548,-1.184 0.125,-2.607 -1.026,-3.272 z"
       id="path4"
       style="fill-opacity:1;fill:#0000ff"
       inkscape:connector-curvature="0" /></g></svg>